<?xml version="1.0" encoding="utf-8"?>
<!-- Generator: Adobe Illustrator 27.2.0, SVG Export Plug-In . SVG Version: 6.00 Build 0)  -->
<svg version="1.1" id="Layer_1" xmlns="http://www.w3.org/2000/svg" xmlns:xlink="http://www.w3.org/1999/xlink" x="0px" y="0px"
	 viewBox="0 0 2000 2000" style="enable-background:new 0 0 2000 2000;" xml:space="preserve">
<style type="text/css">
	.st0{fill:#E63F84;}
	.st1{fill:#FEF3F7;}
	.st2{fill:#FFFFFF;}
</style>
<g id="Delta_00000081613778584898531690000000415532459235365567_">
	<path class="st0" d="M1231.1,915.3c-94.2,355.4-374.5,267.5-442.8,6.8c-66.4-253.6,114.4-375.9,114.4-375.9s39.8,15.7,86.2,28.7
		C1016.1,582.6,1311.4,612.5,1231.1,915.3z M1319.3,755c-28.9-197.7-189.1-220.6-225.3-231.8c-67.9-21-182.1-14.1-193.4-112.7
		c-14.9-129.9,84.1-66,150-60.9c65.9,5.1,71.8-70.1,71.8-70.1s-15.7,39.8-149,7.4C840,254.4,824.2,363.6,823.1,391.9
		c-3.2,81.7,49.7,120.8,55.3,143c2.4,9.6-183.6,45.7-167.7,289.8c15.8,244,166,343.9,282.5,349.7
		C1109.5,1180.2,1366.3,1086.5,1319.3,755z"/>
</g>
<g>
	<circle class="st1" cx="497.1" cy="452.6" r="9.4"/>
	<circle class="st1" cx="527.4" cy="488.3" r="9.4"/>
	<circle class="st1" cx="575" cy="430.6" r="9.4"/>
	<circle class="st1" cx="642.2" cy="546.2" r="9.4"/>
	<circle class="st1" cx="515.8" cy="644.8" r="9.4"/>
	<circle class="st1" cx="365.2" cy="667.2" r="9.4"/>
	<circle class="st1" cx="280.8" cy="776.2" r="9.4"/>
	<circle class="st1" cx="1130.6" cy="430.6" r="9.4"/>
	<circle class="st1" cx="1165" cy="401.9" r="9.4"/>
	<circle class="st1" cx="1244.9" cy="443.2" r="9.4"/>
	<circle class="st1" cx="1535.9" cy="625.3" r="9.4"/>
	<circle class="st1" cx="1441.3" cy="574.8" r="9.4"/>
	<circle class="st1" cx="1445.7" cy="421.2" r="9.4"/>
	<circle class="st1" cx="1244.9" cy="288.8" r="9.4"/>
	<circle class="st1" cx="1644.1" cy="603.7" r="9.4"/>
	<circle class="st1" cx="1715.7" cy="984.2" r="9.4"/>
	<circle class="st1" cx="1418.5" cy="1217.5" r="9.4"/>
	<circle class="st1" cx="1454.9" cy="1184" r="9.4"/>
	<circle class="st1" cx="1517.1" cy="1232.2" r="9.4"/>
	<circle class="st1" cx="280.8" cy="1113.7" r="9.4"/>
	<circle class="st1" cx="365.2" cy="1160.1" r="9.4"/>
	<circle class="st1" cx="374.6" cy="1094.9" r="9.4"/>
	<circle class="st1" cx="525.2" cy="1067.8" r="9.4"/>
	<circle class="st1" cx="856.4" cy="1755.9" r="9.4"/>
	<circle class="st1" cx="1149.7" cy="1765.3" r="9.4"/>
	<circle class="st1" cx="1048.8" cy="1813.5" r="9.4"/>
</g>
<g>
	<path class="st2" d="M1393.1,815.7c41.4,29.1,90,71.4,88.5,127c-0.7,22.1-12.6,43.1-28.4,57.6c-85.5,76.7-276.7,67-384.5,50.1
		c-142.9-23.5-285.4-68.7-405.7-151.2c-45.2-32.5-100.3-79.7-109.6-137.6c-3.9-25.7,5.5-51.7,24.3-69.5
		c25.5-24.1,60.3-35.3,93.9-41.7c-27.5,9.1-55.1,21-76.8,40.3c-48.4,44.1-21.7,95.7,18.1,134.5c112.5,105.2,311.2,165,461.3,190.7
		c100.6,16.5,281.8,32.8,365.5-30.9C1503.6,932,1438.6,856.3,1393.1,815.7L1393.1,815.7z"/>
	<g>
		<circle class="st2" cx="591.1" cy="821.5" r="60.9"/>
	</g>
</g>
</svg>
