<?xml version="1.0" encoding="utf-8"?>
<!-- Generator: Adobe Illustrator 23.0.1, SVG Export Plug-In . SVG Version: 6.00 Build 0)  -->
<svg version="1.1" id="Layer_1" xmlns="http://www.w3.org/2000/svg" xmlns:xlink="http://www.w3.org/1999/xlink" x="0px" y="0px"
	 viewBox="0 0 243 251" style="enable-background:new 0 0 243 251;" xml:space="preserve">
<style type="text/css">
	.st0{fill-rule:evenodd;clip-rule:evenodd;fill:#212121;}
	.st1{fill:#FFFFFF;}
	.st2{fill:#212121;}
</style>
<g id="Sun">
	<circle id="Sun_1_" class="st0" cx="120.07" cy="61.15" r="11.59"/>
	<g id="Rays">
		<polygon class="st0" points="120.07,61.15 73.8,226.4 54.51,223.62 44.01,206.29 		"/>
		<polygon class="st0" points="120.07,61.15 30.72,190.46 13.36,178.27 15.29,156.67 		"/>
		<polygon class="st0" points="120.07,61.15 142.13,233.78 120.07,242.34 98.01,233.78 		"/>
		<polygon class="st0" points="120.07,61.15 11.86,137.1 5.43,119.98 14.43,101.16 		"/>
		<polygon class="st0" points="120.07,61.15 20.43,84.9 23.43,67.57 37.57,58.37 		"/>
		<polygon class="st0" points="120.07,61.15 48.28,46.82 57.28,35.27 72.71,31.42 		"/>
		<polygon class="st0" points="120.07,61.15 85.57,25.43 98.43,18.15 113,19.86 		"/>
		<polygon class="st0" points="120.07,61.15 166.35,226.4 185.63,223.62 196.13,206.29 		"/>
		<polygon class="st0" points="120.07,61.15 209.42,190.46 226.78,178.27 224.85,156.67 		"/>
		<polygon class="st0" points="120.07,61.15 228.28,137.1 234.71,119.98 225.71,101.16 		"/>
		<polygon class="st0" points="120.07,61.15 219.71,84.9 216.71,67.57 202.57,58.37 		"/>
		<polygon class="st0" points="120.07,61.15 191.86,46.82 182.86,35.27 167.43,31.42 		"/>
		<polygon class="st0" points="120.07,61.15 154.57,25.43 141.72,18.15 127.15,19.86 		"/>
	</g>
</g>
<g id="Delta">
	<path class="st1" d="M118.05,220.19c-0.72,0-1.42-0.02-2.09-0.05c-13.04-0.65-26.24-6.96-36.19-17.31
		c-12.28-12.77-19.54-31.31-20.99-53.62c-2.66-40.92,22.84-53.01,31.21-56.98c2.39-1.13,3.2-1.52,3.01-2.25
		c-0.35-1.41-1.52-3.04-2.99-5.11c-3.48-4.88-8.73-12.27-8.28-23.94c0.07-1.7,0.53-7.66,3.69-12.98c3.62-6.1,9.42-9.2,17.24-9.2
		c2.79,0,5.86,0.4,9.13,1.2c7.12,1.73,13.24,2.6,18.21,2.6c6.81,0,10.08-1.65,11.59-2.93c-0.71,3.73-3.35,12.2-12.62,12.2
		c-0.4,0-0.82-0.02-1.24-0.05c-3.11-0.24-6.66-1.15-10.09-2.03c-4.01-1.03-8.16-2.09-11.65-2.09c-3.16,0-5.48,0.87-7.08,2.66
		c-2.38,2.67-3.15,7.4-2.34,14.45c1.83,15.93,16.45,18.67,29.35,21.08c3.79,0.71,7.36,1.38,10.48,2.34c0.67,0.21,1.53,0.43,2.57,0.7
		c10.32,2.67,37.74,9.78,43.07,46.21c3.66,25.84-1.3,46.79-14.75,62.28C152.66,214.22,131.63,220.19,118.05,220.19
		C118.05,220.19,118.05,220.19,118.05,220.19z M97.22,92c-0.37,0.25-37.05,25.75-23.56,77.26c7.25,27.69,26.69,47.04,47.28,47.04
		c19.84,0,35.9-17.65,44.07-48.43c4.77-18,3.5-33.02-3.8-44.66c-11.75-18.74-35.82-23.41-43.73-24.95
		c-1.06-0.21-1.83-0.35-2.25-0.47c-9.33-2.63-17.47-5.82-17.55-5.85l-0.25-0.1L97.22,92z"/>
	<path class="st2" d="M102.66,39.25c2.75,0,5.78,0.4,9.02,1.18c7.16,1.74,13.32,2.62,18.33,2.62c5.64,0,8.92-1.1,10.82-2.25
		c-1,3.96-3.87,10.51-11.85,10.51c-0.39,0-0.8-0.02-1.21-0.05c-3.07-0.24-6.6-1.14-10.01-2.01c-4.04-1.03-8.23-2.1-11.77-2.1
		c-3.31,0-5.75,0.93-7.45,2.83c-2.48,2.78-3.29,7.64-2.46,14.84c1.87,16.3,16.69,19.07,29.76,21.51c3.77,0.71,7.34,1.37,10.42,2.33
		c0.68,0.21,1.57,0.44,2.59,0.71c10.23,2.65,37.42,9.7,42.7,45.8c3.64,25.69-1.28,46.51-14.63,61.88
		c-14.51,16.71-35.39,22.64-48.86,22.64c-0.7,0-1.4-0.02-2.07-0.05c-12.92-0.65-25.99-6.9-35.86-17.16
		c-12.2-12.68-19.41-31.11-20.85-53.3C56.64,108.6,81.9,96.62,90.2,92.69c2.52-1.2,3.57-1.69,3.28-2.82
		c-0.37-1.5-1.56-3.17-3.07-5.28c-3.44-4.83-8.63-12.13-8.18-23.63c0.06-1.67,0.52-7.52,3.62-12.75
		C89.38,42.26,95.03,39.25,102.66,39.25 M120.94,216.8c20.09,0,36.33-17.79,44.55-48.8c4.81-18.14,3.51-33.3-3.86-45.05
		c-11.86-18.92-36.1-23.63-44.06-25.17c-1.01-0.2-1.81-0.35-2.21-0.46c-9.3-2.62-17.42-5.8-17.5-5.83l-0.49-0.19l-0.44,0.29
		c-0.38,0.26-9.5,6.51-17.06,19.27c-6.97,11.76-13.79,31.46-6.7,58.54C80.49,197.31,100.13,216.8,120.94,216.8 M142.33,37.95
		c0,0-1.62,4.1-12.33,4.1c-4.36,0-10.22-0.68-18.09-2.59c-3.45-0.84-6.53-1.21-9.25-1.21c-18.74,0-21.23,17.62-21.42,22.66
		C80.59,77.6,91.38,85.57,92.52,90.1c0.49,1.97-37.47,9.34-34.24,59.15c3.24,49.81,33.89,70.2,57.66,71.39
		c0.68,0.03,1.39,0.05,2.12,0.05c24.61,0,73.79-19.93,64.48-85.67c-5.9-40.36-38.59-45.03-45.99-47.32
		c-13.85-4.29-37.17-2.87-39.48-23c-1.51-13.12,2.68-16.56,8.92-16.56c6.38,0,14.9,3.59,21.71,4.12c0.44,0.03,0.87,0.05,1.28,0.05
		C141.22,52.32,142.33,37.95,142.33,37.95L142.33,37.95z M120.94,215.8c-19.69,0-39.38-18.33-46.8-46.66
		C60.59,117.37,97.5,92.42,97.5,92.42s8.13,3.2,17.6,5.86c5.53,1.56,65.82,7.66,49.43,69.47
		C155.53,201.66,138.23,215.8,120.94,215.8L120.94,215.8z"/>
</g>
</svg>
